<svg width="10" height="9" viewBox="0 0 10 9" fill="none" xmlns="http://www.w3.org/2000/svg">
<path d="M2.19688 2.36688L2.38036 2.1834C2.30615 2.10919 2.19455 2.08699 2.09759 2.12715C2.00063 2.16732 1.9374 2.26193 1.9374 2.36688H2.19688ZM2.19688 6.17258H1.9374C1.9374 6.31588 2.05358 6.43206 2.19688 6.43206V6.17258ZM7.73244 6.17258V6.43206C7.87575 6.43206 7.99192 6.31588 7.99192 6.17258H7.73244ZM7.73244 2.36688H7.99192C7.99192 2.26193 7.9287 2.16732 7.83174 2.12715C7.73478 2.08699 7.62317 2.10919 7.54896 2.1834L7.73244 2.36688ZM6.34855 3.75077L6.16507 3.93425C6.21373 3.98291 6.27973 4.01025 6.34855 4.01025C6.41737 4.01025 6.48337 3.98291 6.53203 3.93425L6.34855 3.75077ZM3.58077 3.75077L3.39729 3.93425C3.44596 3.98291 3.51195 4.01025 3.58077 4.01025C3.64959 4.01025 3.71559 3.98291 3.76425 3.93425L3.58077 3.75077ZM4.96466 2.36688L5.14814 2.1834C5.09948 2.13474 5.03348 2.1074 4.96466 2.1074C4.89584 2.1074 4.82984 2.13474 4.78118 2.1834L4.96466 2.36688ZM2.19688 6.95101C2.05358 6.95101 1.9374 7.06719 1.9374 7.21049C1.9374 7.3538 2.05358 7.46997 2.19688 7.46997V6.95101ZM7.73244 7.46997C7.87575 7.46997 7.99192 7.3538 7.99192 7.21049C7.99192 7.06719 7.87575 6.95101 7.73244 6.95101V7.46997ZM1.9374 2.36688V6.17258H2.45636V2.36688H1.9374ZM2.19688 6.43206H7.73244V5.9131H2.19688V6.43206ZM7.99192 6.17258V2.36688H7.47296V6.17258H7.99192ZM7.54896 2.1834L6.16507 3.56729L6.53203 3.93425L7.91592 2.55036L7.54896 2.1834ZM2.0134 2.55036L3.39729 3.93425L3.76425 3.56729L2.38036 2.1834L2.0134 2.55036ZM3.76425 3.93425L5.14814 2.55036L4.78118 2.1834L3.39729 3.56729L3.76425 3.93425ZM4.78118 2.55036L6.16507 3.93425L6.53203 3.56729L5.14814 2.1834L4.78118 2.55036ZM2.19688 7.46997H7.73244V6.95101H2.19688V7.46997Z" fill="#7E74F1"/>
</svg>
