<svg width="9" height="9" viewBox="0 0 9 9" fill="none" xmlns="http://www.w3.org/2000/svg">
<path d="M7.35981 4.78874C7.35981 6.36511 6.08191 7.64301 4.50554 7.64301V8.16197C6.36852 8.16197 7.87876 6.65172 7.87876 4.78874H7.35981ZM4.50554 7.64301C2.92916 7.64301 1.65126 6.36511 1.65126 4.78874H1.13231C1.13231 6.65172 2.64255 8.16197 4.50554 8.16197V7.64301ZM1.65126 4.78874C1.65126 3.21237 2.92916 1.93447 4.50554 1.93447V1.41551C2.64255 1.41551 1.13231 2.92575 1.13231 4.78874H1.65126ZM4.50554 1.93447C6.08191 1.93447 7.35981 3.21237 7.35981 4.78874H7.87876C7.87876 2.92575 6.36852 1.41551 4.50554 1.41551V1.93447ZM4.50554 1.67499C4.34985 1.88257 4.34976 1.8825 4.34967 1.88244C4.34965 1.88242 4.34956 1.88236 4.34952 1.88233C4.34943 1.88226 4.34937 1.88221 4.34932 1.88217C4.34922 1.8821 4.34921 1.88209 4.34928 1.88215C4.34942 1.88225 4.34988 1.8826 4.35066 1.8832C4.35221 1.88441 4.35501 1.88659 4.35898 1.88977C4.36692 1.89612 4.37953 1.90642 4.39613 1.92065C4.42936 1.94913 4.4785 1.99328 4.53829 2.05308C4.658 2.17279 4.81956 2.35433 4.98158 2.59736C5.30495 3.08242 5.62994 3.81162 5.62994 4.78874H6.1489C6.1489 3.69002 5.78195 2.86235 5.41338 2.30949C5.22943 2.03356 5.04501 1.82588 4.90525 1.68612C4.8353 1.61617 4.77632 1.56302 4.73387 1.52663C4.71263 1.50843 4.6955 1.4944 4.68317 1.48453C4.67701 1.4796 4.67204 1.47571 4.66835 1.47285C4.66651 1.47143 4.66499 1.47026 4.66379 1.46935C4.6632 1.4689 4.66268 1.46851 4.66226 1.46818C4.66204 1.46802 4.66185 1.46787 4.66168 1.46775C4.66159 1.46768 4.66148 1.46759 4.66143 1.46756C4.66133 1.46748 4.66122 1.4674 4.50554 1.67499ZM5.62994 4.78874C5.62994 5.76586 5.30495 6.49506 4.98158 6.98012C4.81956 7.22315 4.658 7.40469 4.53829 7.5244C4.4785 7.58419 4.42936 7.62835 4.39613 7.65683C4.37953 7.67106 4.36692 7.68135 4.35898 7.68771C4.35501 7.69088 4.35221 7.69307 4.35066 7.69427C4.34988 7.69487 4.34942 7.69522 4.34928 7.69533C4.34921 7.69538 4.34922 7.69537 4.34932 7.6953C4.34937 7.69527 4.34943 7.69522 4.34952 7.69515C4.34956 7.69512 4.34965 7.69506 4.34967 7.69504C4.34976 7.69497 4.34985 7.69491 4.50554 7.90249C4.66122 8.11007 4.66133 8.10999 4.66143 8.10991C4.66148 8.10988 4.66159 8.1098 4.66168 8.10973C4.66185 8.1096 4.66204 8.10946 4.66226 8.10929C4.66268 8.10897 4.6632 8.10858 4.66379 8.10813C4.66499 8.10722 4.66651 8.10605 4.66835 8.10462C4.67204 8.10177 4.67701 8.09788 4.68317 8.09294C4.6955 8.08308 4.71263 8.06905 4.73387 8.05085C4.77632 8.01446 4.8353 7.96131 4.90525 7.89136C5.04501 7.75159 5.22943 7.54391 5.41338 7.26798C5.78195 6.71513 6.1489 5.88745 6.1489 4.78874H5.62994ZM4.50554 7.90249C4.66122 7.69491 4.66131 7.69497 4.6614 7.69504C4.66142 7.69506 4.66151 7.69512 4.66155 7.69515C4.66164 7.69522 4.6617 7.69527 4.66175 7.6953C4.66185 7.69537 4.66186 7.69538 4.66179 7.69533C4.66165 7.69522 4.66119 7.69487 4.66041 7.69427C4.65886 7.69307 4.65606 7.69088 4.65209 7.68771C4.64415 7.68135 4.63154 7.67106 4.61494 7.65683C4.58171 7.62835 4.53257 7.58419 4.47278 7.5244C4.35307 7.40469 4.19151 7.22315 4.02949 6.98012C3.70612 6.49506 3.38113 5.76586 3.38113 4.78874H2.86217C2.86217 5.88745 3.22912 6.71513 3.59769 7.26798C3.78164 7.54391 3.96606 7.75159 4.10582 7.89136C4.17577 7.96131 4.23475 8.01446 4.2772 8.05085C4.29844 8.06905 4.31557 8.08308 4.3279 8.09294C4.33406 8.09788 4.33903 8.10177 4.34272 8.10462C4.34456 8.10605 4.34608 8.10722 4.34728 8.10813C4.34787 8.10858 4.34839 8.10897 4.34881 8.10929C4.34903 8.10946 4.34922 8.1096 4.34939 8.10973C4.34948 8.1098 4.34959 8.10988 4.34964 8.10991C4.34974 8.10999 4.34985 8.11007 4.50554 7.90249ZM3.38113 4.78874C3.38113 3.81162 3.70612 3.08242 4.02949 2.59736C4.19151 2.35433 4.35307 2.17279 4.47278 2.05308C4.53257 1.99328 4.58171 1.94913 4.61494 1.92065C4.63154 1.90642 4.64415 1.89612 4.65209 1.88977C4.65606 1.88659 4.65886 1.88441 4.66041 1.8832C4.66119 1.8826 4.66165 1.88225 4.66179 1.88215C4.66186 1.88209 4.66185 1.8821 4.66175 1.88217C4.6617 1.88221 4.66164 1.88226 4.66155 1.88233C4.66151 1.88236 4.66142 1.88242 4.6614 1.88244C4.66131 1.8825 4.66122 1.88257 4.50554 1.67499C4.34985 1.4674 4.34974 1.46748 4.34964 1.46756C4.34959 1.46759 4.34948 1.46768 4.34939 1.46774C4.34922 1.46787 4.34903 1.46802 4.34881 1.46818C4.34839 1.46851 4.34787 1.4689 4.34728 1.46935C4.34608 1.47026 4.34456 1.47143 4.34272 1.47285C4.33903 1.47571 4.33406 1.4796 4.3279 1.48453C4.31557 1.4944 4.29844 1.50843 4.2772 1.52663C4.23475 1.56302 4.17577 1.61617 4.10582 1.68612C3.96606 1.82588 3.78164 2.03356 3.59769 2.30949C3.22912 2.86235 2.86217 3.69002 2.86217 4.78874H3.38113ZM7.61929 4.52926H1.39178V5.04822H7.61929V4.52926Z" fill="#7E74F1"/>
</svg>
