<svg width="9" height="9" viewBox="0 0 9 9" fill="none" xmlns="http://www.w3.org/2000/svg">
<path fill-rule="evenodd" clip-rule="evenodd" d="M4.78443 1.76207C4.55919 1.6472 4.25399 1.64543 4.02695 1.76C3.23341 2.27603 2.39437 2.76795 1.67569 3.26119C1.56872 3.34755 1.49281 3.47305 1.49411 3.62077C1.4954 3.76789 1.57285 3.89171 1.67917 3.97665C2.39437 4.40766 3.23341 4.89958 4.0094 5.46437C4.23464 5.57924 4.53985 5.58102 4.76688 5.46644C5.58273 4.89958 5.91834 4.73561 7.11815 3.96526C7.22511 3.87889 7.30102 3.75339 7.29973 3.60567C7.29844 3.45856 7.22098 3.33473 7.11467 3.24979C6.42177 2.76795 5.58273 2.27603 4.78443 1.76207ZM4.25796 2.19707C4.33839 2.15648 4.47052 2.15686 4.5515 2.19816C5.24711 2.60397 5.91834 3.09589 6.76891 3.60903C6.08615 4.07972 5.41492 4.57163 4.53588 5.02938C4.45544 5.06997 4.32331 5.06958 4.24233 5.02828C3.44003 4.57163 2.72999 4.07972 2.02493 3.61741C2.72999 3.09589 3.23341 2.76795 4.25796 2.19707Z" fill="#7E74F1"/>
<path d="M7.48359 4.82433C7.55721 4.93955 7.5213 5.09128 7.40338 5.16322L5.35369 6.41363C5.0793 6.53929 4.74165 6.70325 4.40807 6.70327C4.07449 6.70329 3.73684 6.53929 3.44003 6.41374L1.4128 5.17748C1.29486 5.10556 1.25892 4.95384 1.33253 4.8386C1.40613 4.72336 1.5614 4.68825 1.67933 4.76017L3.70657 5.99643C3.88919 6.1078 4.14849 6.21137 4.40807 6.21135C4.66765 6.21134 4.9045 6.10774 5.08708 5.99636L7.13677 4.74595C7.25469 4.67401 7.40997 4.7091 7.48359 4.82433Z" fill="#7E74F1"/>
<path d="M7.48357 6.05564C7.55721 6.17086 7.52132 6.32259 7.4034 6.39454L5.62836 7.47769C5.0793 7.74022 4.82938 7.90246 4.39687 7.90249C3.96436 7.90251 3.40122 7.57625 3.16531 7.47784L1.41277 6.4088C1.29485 6.33687 1.25893 6.18514 1.33254 6.06991C1.40616 5.95468 1.56143 5.91959 1.67936 5.99152L3.4319 7.06055C3.69134 7.21881 4.03837 7.35917 4.39687 7.35915C4.75538 7.35913 5.10232 7.21873 5.3617 7.06045L7.13675 5.9773C7.25466 5.90535 7.40994 5.94042 7.48357 6.05564Z" fill="#7E74F1"/>
</svg>
